<svg width="98" height="98" viewBox="0 0 98 98" fill="none" xmlns="http://www.w3.org/2000/svg">
<path d="M49.1698 4C24.2232 4 4 24.2232 4 49.1698C4 74.1162 24.2232 94.3396 49.1698 94.3396C74.1162 94.3396 94.3396 74.1162 94.3396 49.1698C94.3396 24.2232 74.1162 4 49.1698 4Z" stroke="black" stroke-width="6.77547" stroke-linecap="round" stroke-linejoin="round"/>
<path d="M14.2581 77.8332C14.2581 77.8332 24.3265 64.9792 49.1698 64.9792C74.0132 64.9792 84.082 77.8332 84.082 77.8332" stroke="black" stroke-width="6.77547" stroke-linecap="round" stroke-linejoin="round"/>
<path d="M49.1698 49.1698C56.654 49.1698 62.7208 43.1031 62.7208 35.6189C62.7208 28.1349 56.654 22.0679 49.1698 22.0679C41.6857 22.0679 35.6189 28.1349 35.6189 35.6189C35.6189 43.1031 41.6857 49.1698 49.1698 49.1698Z" stroke="black" stroke-width="6.77547" stroke-linecap="round" stroke-linejoin="round"/>
</svg>
