<svg width="100" height="102" viewBox="0 0 100 102" fill="none" xmlns="http://www.w3.org/2000/svg">
<path d="M74.4159 97.4681H8.21063C6.43745 97.4681 5 96.0309 5 94.2575V41.8173C5 40.0441 6.43745 38.6066 8.21063 38.6066H23.0203C26.7796 38.6066 30.2631 36.6342 32.1972 33.4107L46.7007 9.238C49.8305 4.02217 57.2016 3.52635 61.0014 8.27615C62.7924 10.515 63.3698 13.4907 62.5457 16.2369L57.0748 34.4734C56.4567 36.5334 57.9994 38.6066 60.15 38.6066H84.6316C91.688 38.6066 96.8133 45.3168 94.9565 52.1244L84.7408 89.5818C83.471 94.2383 79.242 97.4681 74.4159 97.4681Z" stroke="black" stroke-width="8.02657" stroke-linecap="round"/>
<path d="M23.7287 97.4682V38.6067" stroke="black" stroke-width="8.02657" stroke-linecap="round" stroke-linejoin="round"/>
</svg>
