<svg width="100" height="102" viewBox="0 0 100 102" fill="none" xmlns="http://www.w3.org/2000/svg">
<path d="M74.4159 5H8.21063C6.43745 5 5 6.43745 5 8.21063V60.6509C5 62.4242 6.43745 63.8615 8.21063 63.8615H23.0203C26.7796 63.8615 30.2631 65.8339 32.1972 69.0574L46.7007 93.2302C49.8305 98.4459 57.2016 98.9419 61.0014 94.1918C62.7924 91.9529 63.3698 88.9777 62.5457 86.231L57.0748 67.9947C56.4567 65.9345 57.9994 63.8615 60.15 63.8615H84.6316C91.688 63.8615 96.8133 57.1513 94.9565 50.3437L84.7408 12.8862C83.471 8.23011 79.242 5 74.4159 5Z" stroke="black" stroke-width="8.02657" stroke-linecap="round"/>
<path d="M23.7287 63.8615V5" stroke="black" stroke-width="8.02657" stroke-linecap="round" stroke-linejoin="round"/>
</svg>
